<svg id="visual" viewBox="0 0 900 600" width="900" height="600" xmlns="http://www.w3.org/2000/svg" xmlns:xlink="http://www.w3.org/1999/xlink" version="1.1"><rect x="0" y="0" width="900" height="600" fill="#001220"></rect><path d="M0 324L18.8 328.2C37.7 332.3 75.3 340.7 112.8 345.8C150.3 351 187.7 353 225.2 360.3C262.7 367.7 300.3 380.3 337.8 377.5C375.3 374.7 412.7 356.3 450.2 350.8C487.7 345.3 525.3 352.7 562.8 361.7C600.3 370.7 637.7 381.3 675.2 378.8C712.7 376.3 750.3 360.7 787.8 354.8C825.3 349 862.7 353 881.3 355L900 357L900 601L881.3 601C862.7 601 825.3 601 787.8 601C750.3 601 712.7 601 675.2 601C637.7 601 600.3 601 562.8 601C525.3 601 487.7 601 450.2 601C412.7 601 375.3 601 337.8 601C300.3 601 262.7 601 225.2 601C187.7 601 150.3 601 112.8 601C75.3 601 37.7 601 18.8 601L0 601Z" fill="#1354e1"></path><path d="M0 397L18.8 399.8C37.7 402.7 75.3 408.3 112.8 412.3C150.3 416.3 187.7 418.7 225.2 414.3C262.7 410 300.3 399 337.8 396.2C375.3 393.3 412.7 398.7 450.2 408.8C487.7 419 525.3 434 562.8 440.8C600.3 447.7 637.7 446.3 675.2 438.5C712.7 430.7 750.3 416.3 787.8 405.3C825.3 394.3 862.7 386.7 881.3 382.8L900 379L900 601L881.3 601C862.7 601 825.3 601 787.8 601C750.3 601 712.7 601 675.2 601C637.7 601 600.3 601 562.8 601C525.3 601 487.7 601 450.2 601C412.7 601 375.3 601 337.8 601C300.3 601 262.7 601 225.2 601C187.7 601 150.3 601 112.8 601C75.3 601 37.7 601 18.8 601L0 601Z" fill="#9c38c2"></path><path d="M0 488L18.8 486.8C37.7 485.7 75.3 483.3 112.8 480.7C150.3 478 187.7 475 225.2 475C262.7 475 300.3 478 337.8 478.3C375.3 478.7 412.7 476.3 450.2 474.8C487.7 473.3 525.3 472.7 562.8 468.2C600.3 463.7 637.7 455.3 675.2 457.7C712.7 460 750.3 473 787.8 472.3C825.3 471.7 862.7 457.3 881.3 450.2L900 443L900 601L881.3 601C862.7 601 825.3 601 787.8 601C750.3 601 712.7 601 675.2 601C637.7 601 600.3 601 562.8 601C525.3 601 487.7 601 450.2 601C412.7 601 375.3 601 337.8 601C300.3 601 262.7 601 225.2 601C187.7 601 150.3 601 112.8 601C75.3 601 37.7 601 18.8 601L0 601Z" fill="#cf0f98"></path><path d="M0 518L18.8 524C37.7 530 75.3 542 112.8 539C150.3 536 187.7 518 225.2 509.7C262.7 501.3 300.3 502.7 337.8 502.8C375.3 503 412.7 502 450.2 510.3C487.7 518.7 525.3 536.3 562.8 539.5C600.3 542.7 637.7 531.3 675.2 526.8C712.7 522.3 750.3 524.7 787.8 522.3C825.3 520 862.7 513 881.3 509.5L900 506L900 601L881.3 601C862.7 601 825.3 601 787.8 601C750.3 601 712.7 601 675.2 601C637.7 601 600.3 601 562.8 601C525.3 601 487.7 601 450.2 601C412.7 601 375.3 601 337.8 601C300.3 601 262.7 601 225.2 601C187.7 601 150.3 601 112.8 601C75.3 601 37.7 601 18.8 601L0 601Z" fill="#e5136b"></path></svg>