<svg id="visual" viewBox="0 0 900 600" width="900" height="600" xmlns="http://www.w3.org/2000/svg" xmlns:xlink="http://www.w3.org/1999/xlink" version="1.1"><rect x="0" y="0" width="900" height="600" fill="#101112"></rect><path d="M0 181L21.5 167.3C43 153.7 86 126.3 128.8 131.5C171.7 136.7 214.3 174.3 257.2 186.7C300 199 343 186 385.8 169.3C428.7 152.7 471.3 132.3 514.2 116.3C557 100.3 600 88.7 642.8 87.2C685.7 85.7 728.3 94.3 771.2 112.7C814 131 857 159 878.5 173L900 187L900 0L878.5 0C857 0 814 0 771.2 0C728.3 0 685.7 0 642.8 0C600 0 557 0 514.2 0C471.3 0 428.7 0 385.8 0C343 0 300 0 257.2 0C214.3 0 171.7 0 128.8 0C86 0 43 0 21.5 0L0 0Z" fill="#7eaffa" stroke-linecap="round" stroke-linejoin="miter"></path></svg>